<svg width="500" height="500" viewBox="0 0 500 500" fill="none" xmlns="http://www.w3.org/2000/svg">
<rect width="500" height="500" rx="250" fill="#0D1117"/>
<path d="M259.717 66.6483C244.458 63.4545 233.665 64.645 219.565 70.2107C200.913 77.5734 186.668 99.7112 183.867 118.971C181.066 138.225 194.498 148.308 210.288 157.49C233.336 170.893 274.111 174.164 296.38 156.303C307.845 147.106 318.748 129.809 321.02 115.038C322.56 105.03 319.152 100.4 311.149 94.7766C302.6 88.7686 288.718 82.9969 278.716 80.3042C272.834 78.7204 267.034 76.9965 261.053 75.9996" stroke="#FB5F25" stroke-width="20" stroke-linecap="round"/>
<path d="M253.037 174.857C254.776 229.62 259.717 284.036 259.717 338.877C259.717 345.655 259.717 352.434 259.717 359.212" stroke="#FB5F25" stroke-width="20" stroke-linecap="round"/>
<path d="M259.717 359.212C252.322 384.121 236.742 405.605 230.623 430.757C230.038 433.165 231.048 436.162 229.733 438.327C227.582 441.87 226.319 444.52 226.319 448.718" stroke="#FB5F25" stroke-width="20" stroke-linecap="round"/>
<path d="M263.724 361.884C270.571 373.752 279.467 384.307 285.247 396.692C288.353 403.348 291.97 410.074 295.786 416.359C297.35 418.936 297.051 421.616 298.458 424.078C299.658 426.179 301.438 427.96 302.465 430.015" stroke="#FB5F25" stroke-width="20" stroke-linecap="round"/>
<path d="M146.165 255.011C179.215 253.962 212.056 248.671 245.17 248.332C273.965 248.037 303.097 249.855 331.856 248.257C337.481 247.945 342.899 246.996 348.555 246.996C352.014 246.996 353.616 244.324 357.238 244.324" stroke="#FB5F25" stroke-width="20" stroke-linecap="round"/>
</svg>
